Coordinates
version=1
nRows=19
nColumns=34
inDegrees=no

Units are S.I. units (second, meters, Newtons, ...)
If the header above contains a line with 'inDegrees', this indicates whether rotational values are in degrees (yes) or radians (no).

endheader
time	pelvis_tilt	pelvis_list	pelvis_rotation	pelvis_tx	pelvis_ty	pelvis_tz	hip_flexion_r	hip_adduction_r	hip_rotation_r	knee_angle_r	ankle_angle_r	subtalar_angle_r	mtp_angle_r	hip_flexion_l	hip_adduction_l	hip_rotation_l	knee_angle_l	ankle_angle_l	subtalar_angle_l	mtp_angle_l	lumbar_extension	lumbar_bending	lumbar_rotation	arm_flex_r	arm_add_r	arm_rot_r	elbow_flex_r	pro_sup_r	arm_flex_l	arm_add_l	arm_rot_l	elbow_flex_l	pro_sup_l
6.4	-0.490659	-0.104786	-0.0901155	-0.281702	0.611148	-0.578178	1.64939	-0.244116	-0.0948027	1.72804	0.621828	0.0436427	-0.0952476	1.78499	-0.356804	0.199323	1.79798	0.640805	0.102594	-0.0952477	-0.490728	0.0859518	0.082939	1.33308	-0.537666	0.191469	2.32096	1.45141	1.23122	-0.434695	0.13592	2.335	1.50348
6.41	-0.490281	-0.105301	-0.090623	-0.281181	0.611027	-0.578233	1.64865	-0.243628	-0.0950644	1.72876	0.6223	0.0434883	-0.0952476	1.78447	-0.356025	0.200907	1.79909	0.641348	0.10086	-0.0952477	-0.490801	0.0861228	0.0842509	1.33137	-0.537775	0.190882	2.32093	1.45143	1.23148	-0.434899	0.136169	2.33597	1.50392
6.42	-0.489846	-0.105994	-0.0912107	-0.280689	0.610987	-0.578255	1.6476	-0.242985	-0.0956351	1.72921	0.622691	0.0432049	-0.0952476	1.78387	-0.355505	0.202586	1.79999	0.641863	0.0993904	-0.0952477	-0.49095	0.086346	0.0856952	1.32979	-0.537879	0.190139	2.32088	1.45165	1.23177	-0.435043	0.136148	2.33689	1.5041
6.43	-0.489488	-0.106752	-0.0918215	-0.280228	0.611009	-0.578253	1.64644	-0.242285	-0.0963885	1.72943	0.623023	0.0428552	-0.0952476	1.78328	-0.355193	0.204208	1.80066	0.642333	0.0981685	-0.0952477	-0.491002	0.0865722	0.0871339	1.32826	-0.537928	0.189281	2.32083	1.45214	1.23201	-0.435165	0.13587	2.33779	1.50396
6.44	-0.489361	-0.107448	-0.092383	-0.279806	0.61107	-0.578233	1.64542	-0.241639	-0.0971799	1.72946	0.623327	0.0425125	-0.0952476	1.78283	-0.355009	0.205606	1.80111	0.642739	0.0971534	-0.0952477	-0.490747	0.0867474	0.0884162	1.32672	-0.537879	0.18836	2.32077	1.45289	1.23207	-0.435308	0.135394	2.33871	1.50345
6.45	-0.489598	-0.10798	-0.0928289	-0.279425	0.611151	-0.578204	1.64472	-0.241146	-0.0978891	1.72935	0.623642	0.0422371	-0.0952476	1.78261	-0.354877	0.206646	1.80133	0.643066	0.0963016	-0.0952477	-0.490003	0.0868307	0.089423	1.32507	-0.53772	0.187429	2.32074	1.45385	1.23187	-0.435505	0.134815	2.33966	1.50259
6.46	-0.49025	-0.108302	-0.0931148	-0.279088	0.611238	-0.578168	1.64444	-0.240859	-0.0984548	1.72911	0.624002	0.0420602	-0.0952476	1.78266	-0.354744	0.207271	1.80131	0.643311	0.0955859	-0.0952477	-0.488697	0.0868095	0.0901041	1.32327	-0.537472	0.186538	2.32075	1.45491	1.23139	-0.435768	0.134244	2.34064	1.50142
6.47	-0.491263	-0.108434	-0.0932203	-0.278794	0.611331	-0.578128	1.64454	-0.240783	-0.0988755	1.72879	0.624428	0.0419823	-0.0952476	1.78295	-0.354587	0.207504	1.80108	0.64348	0.0949979	-0.0952477	-0.486899	0.0867025	0.0904817	1.32137	-0.537199	0.185732	2.3208	1.45592	1.2307	-0.436086	0.133788	2.34161	1.50005
6.48	-0.492494	-0.108437	-0.0931422	-0.278539	0.611435	-0.578085	1.64487	-0.240892	-0.0991876	1.72839	0.624923	0.04198	-0.0952476	1.78338	-0.354398	0.207422	1.80067	0.643583	0.0945394	-0.0952477	-0.4848	0.086553	0.0906224	1.31948	-0.536974	0.185056	2.32085	1.45669	1.22993	-0.43644	0.133526	2.34247	1.49866
6.49	-0.493765	-0.108385	-0.0928905	-0.278321	0.611559	-0.57804	1.64524	-0.24114	-0.0994399	1.72793	0.625473	0.0420123	-0.0952476	1.78382	-0.354182	0.207126	1.80011	0.643633	0.0942164	-0.0952477	-0.482638	0.0864169	0.0906026	1.31777	-0.536861	0.184564	2.32088	1.45703	1.22924	-0.436827	0.133494	2.34314	1.49739
6.5	-0.494918	-0.108348	-0.0924866	-0.278136	0.611712	-0.577995	1.64551	-0.241469	-0.0996764	1.72743	0.626045	0.0420252	-0.0952476	1.78416	-0.353952	0.206711	1.79944	0.643643	0.0940395	-0.0952477	-0.480634	0.0863485	0.0904836	1.31641	-0.536882	0.184303	2.32081	1.45688	1.22877	-0.437274	0.133675	2.34359	1.49639
6.51	-0.495852	-0.108374	-0.091963	-0.277985	0.611897	-0.577949	1.64557	-0.241815	-0.0999288	1.7269	0.626595	0.0419555	-0.0952476	1.78432	-0.353733	0.206262	1.79868	0.643623	0.0940263	-0.0952477	-0.478941	0.0863853	0.0903058	1.31552	-0.537027	0.184299	2.32062	1.45633	1.22858	-0.437827	0.134026	2.3438	1.49566
6.52	-0.496527	-0.108491	-0.0913591	-0.277865	0.612116	-0.5779	1.64539	-0.242109	-0.100212	1.72635	0.627078	0.0417372	-0.0952476	1.78431	-0.353561	0.205837	1.79786	0.643583	0.094201	-0.0952477	-0.477629	0.0865376	0.0900959	1.31515	-0.537264	0.184539	2.32027	1.45558	1.22869	-0.438532	0.134495	2.34384	1.49519
6.53	-0.496969	-0.108699	-0.0907142	-0.277779	0.612361	-0.577841	1.645	-0.242293	-0.100525	1.72578	0.627451	0.0413088	-0.0952476	1.78415	-0.353468	0.205474	1.79701	0.643526	0.0945865	-0.0952477	-0.47668	0.0867853	0.0898731	1.31527	-0.537566	0.184972	2.3198	1.45479	1.22909	-0.439409	0.135043	2.34373	1.49495
6.54	-0.497254	-0.10898	-0.090058	-0.277726	0.61262	-0.577765	1.6445	-0.242325	-0.100847	1.72521	0.627685	0.0406246	-0.0952476	1.78395	-0.353475	0.205187	1.79613	0.643448	0.0951919	-0.0952477	-0.475994	0.0870821	0.0896523	1.31575	-0.537919	0.185508	2.31925	1.45409	1.22972	-0.440434	0.135659	2.34353	1.4949
6.55	-0.497491	-0.109301	-0.0894039	-0.277706	0.612878	-0.577668	1.64402	-0.242195	-0.101151	1.72465	0.627765	0.0396642	-0.0952476	1.78379	-0.353572	0.204966	1.79524	0.64334	0.0960004	-0.0952477	-0.475418	0.0873667	0.0894456	1.31639	-0.538338	0.186027	2.3187	1.45353	1.23051	-0.441534	0.136353	2.34326	1.49501
6.56	-0.497788	-0.109626	-0.0887481	-0.277718	0.613119	-0.577542	1.64366	-0.241926	-0.101407	1.72413	0.627696	0.0384383	-0.0952476	1.78378	-0.353724	0.204798	1.79435	0.643185	0.0969659	-0.0952477	-0.474789	0.0875821	0.0892642	1.31698	-0.538854	0.186398	2.31821	1.45316	1.23137	-0.442602	0.137152	2.34294	1.49526
6.57	-0.498221	-0.109936	-0.0880762	-0.27776	0.61333	-0.577387	1.64352	-0.241557	-0.101611	1.72365	0.627504	0.0369848	-0.0952476	1.78397	-0.353874	0.204683	1.79345	0.642971	0.0980181	-0.0952477	-0.47399	0.0876964	0.0891218	1.31734	-0.539504	0.186515	2.31785	1.45297	1.23226	-0.443528	0.138076	2.34257	1.49565
6.58	-0.498796	-0.110242	-0.0873726	-0.27783	0.613506	-0.577202	1.64359	-0.241134	-0.101783	1.72323	0.627223	0.0353589	-0.0952476	1.78437	-0.353962	0.204652	1.79257	0.642693	0.099075	-0.0952477	-0.472999	0.0877168	0.0890374	1.31737	-0.540307	0.18632	2.31764	1.45295	1.23312	-0.444231	0.139117	2.34214	1.49617
